# xmcd
#
# Track frame offsets: 
#        150
#        43207
#        88052
#        104461
#        137625
#        173784
#        199668
#        232676
#        248209
#
# Disc length: 3747 seconds
#
# Revision: 0
# Processed by: cddbd v1.5.2PL0 Copyright (c) Steve Scherf et al.
# Submitted via: ExactAudioCopy v0.99pb4
#
DISCID=730ea109
DTITLE=Jimmy Page and The Black Crowes - Excess All Areas 2000 disc 4
DYEAR=2000
DGENRE=Classic Rock
TTITLE0=The Lemon Song
TTITLE1=In The Light
TTITLE2=Shape Of Things
TTITLE3=Nobody's Fault But Mine
TTITLE4=Heartbreaker
TTITLE5=Bring It On Home
TTITLE6=She Talks To Angels
TTITLE7=Out On The Tiles
TTITLE8=Whole Lotta Love
EXTD=
EXTT0=
EXTT1=
EXTT2=
EXTT3=
EXTT4=
EXTT5=
EXTT6=
EXTT7=
EXTT8=
PLAYORDER=
